<?xml version="1.0" encoding="UTF-8"?>
<!DOCTYPE svg PUBLIC "-//W3C//DTD SVG 1.1//EN" "http://www.w3.org/Graphics/SVG/1.1/DTD/svg11.dtd">
<!-- Creator: CorelDRAW X7 -->
<svg xmlns="http://www.w3.org/2000/svg" xml:space="preserve" width="4.72441in" height="4.02205in" version="1.1" style="shape-rendering:geometricPrecision; text-rendering:geometricPrecision; image-rendering:optimizeQuality; fill-rule:evenodd; clip-rule:evenodd"
viewBox="0 0 4724 4022"
 xmlns:xlink="http://www.w3.org/1999/xlink">
 <defs>
  <style type="text/css">
   <![CDATA[
    .str0 {stroke:#C92615;stroke-width:3}
    .fil10 {fill:#09A9F3}
    .fil7 {fill:#27C5DB}
    .fil12 {fill:#2F2F30}
    .fil17 {fill:#4EC7D5}
    .fil8 {fill:#51C2F4}
    .fil6 {fill:#5C3C33}
    .fil18 {fill:#5C3C33}
    .fil11 {fill:#763827}
    .fil4 {fill:#81DDEC}
    .fil16 {fill:#87685A}
    .fil13 {fill:#8F2D18}
    .fil9 {fill:#AEECF1}
    .fil15 {fill:#B02816}
    .fil0 {fill:#C92615}
    .fil5 {fill:#E0E0E0}
    .fil14 {fill:#F78D8A}
    .fil1 {fill:#FD3B55}
    .fil2 {fill:#FEE4EA}
    .fil3 {fill:#FEFEFE}
   ]]>
  </style>
 </defs>
 <g id="Layer_x0020_1">
  <metadata id="CorelCorpID_0Corel-Layer"/>
  <g id="_349397376">
   <path class="fil0" d="M573 1973l6 33 5 6 183 117c0,0 48,-13 48,-14 0,-2 5,-55 2,-61 -3,-6 -57,-80 -57,-80l-42 -30 -94 4 -51 25z"/>
   <path class="fil1" d="M386 2186c-3,-2 17,78 12,83 -4,6 9,48 18,56 8,9 35,37 51,39 16,1 54,15 74,15 19,0 118,8 134,1 15,-7 137,-12 139,-15 1,-3 20,-87 18,-92 -1,-5 -122,-211 -122,-211l-31 -55 -137 -6 -156 185z"/>
   <path class="fil2" d="M2992 1232c110,-9 86,85 38,95 -57,11 -74,-41 -38,-95zm-667 -148c-33,-18 -109,-73 -88,-117 42,-49 35,-17 83,-27 118,-23 91,70 5,144zm562 -453c3,12 6,18 4,30 -9,55 -48,31 -65,-7l-58 2c-5,-53 -7,-41 30,-64 -4,-28 -7,-39 8,-52 44,-18 33,3 61,27l53 -2c5,53 2,42 -33,66zm-1097 -550c12,22 22,35 35,64 240,27 228,338 -27,352 2,70 89,166 100,244 30,29 39,57 53,101l633 1345 85 -168 72 -156 4 -19 81 -11 33 -5 190 -29 -4 -96c3,-18 2,-22 8,-38 4,-9 3,-6 7,-13 7,-13 8,-10 14,-18l1 3c25,-50 37,-54 95,-68 17,-40 149,23 161,30 60,-23 105,-33 167,-1 76,38 75,87 99,122 73,-7 368,-62 412,-52 62,15 149,210 199,267 79,-19 67,-46 178,-24 -2,-3 -5,-9 -6,-7 -7,16 -20,-96 -20,-98 -128,86 -122,-51 -73,-64 34,-9 44,9 72,26 -10,-72 -16,-111 -36,-197l-36 -152c-2,-17 -5,1 0,-29 -90,11 -238,46 -320,42 -15,-46 -52,-265 -53,-327 -3,-128 89,-191 215,-178 -12,-14 15,-26 -83,-17l-175 -228c-242,-286 -635,-529 -1017,-619 -27,-7 -53,-12 -79,-18 -30,-7 -52,-18 -87,-22 -250,-33 -482,-34 -725,18 -58,12 -122,29 -173,40z"/>
   <path class="fil3" d="M1043 2209c-6,-51 34,-56 82,-77l308 -145c83,-38 352,-177 414,-189l20 46c-40,34 -506,242 -618,295 -70,33 -165,96 -206,70zm127 -194c-24,20 -117,64 -159,66 -29,-69 -168,-326 -165,-383l39 -16c31,21 37,45 53,81 23,52 93,208 116,234 51,-7 51,-34 107,-24l9 42zm-42 -453c105,-33 140,105 171,174 40,87 108,199 -21,236 -108,32 -141,-99 -177,-177 -41,-89 -101,-194 27,-233zm238 48c38,62 50,90 81,95 17,-57 -73,-189 -56,-263 67,-35 65,53 107,193 28,92 80,202 8,226 -79,2 -117,-94 -152,-150 -28,-44 -113,-148 -115,-192 28,-24 17,-17 56,-22 19,42 45,70 71,113zm273 178c-34,-81 -81,-172 -122,-260 -19,-43 -60,-101 -19,-136 26,-22 101,-52 137,-52l14 45 -94 57 46 90c51,-1 90,-60 101,27 -24,20 -41,24 -68,36 6,40 21,77 46,105 48,2 53,-32 109,-28l14 49c-38,20 -114,61 -164,67zm-907 132c40,21 34,10 54,47 55,26 52,114 56,183 16,262 60,248 -160,252 1,40 231,504 270,589 22,50 119,266 143,290 78,77 221,-71 302,-73 10,-10 -6,-2 24,-20 10,-6 23,-10 35,-15 7,-3 19,-10 26,-12 37,-17 4,-8 38,-11 17,-20 17,-17 45,-27l40 -26c28,-50 55,-71 92,-97l73 -65c116,-87 276,-319 288,-424 5,-36 21,7 7,-23 -44,6 -453,206 -550,253l-166 72c-55,2 -1,3 -26,-7 -17,-54 9,-44 60,-70 34,-17 61,-29 94,-44 62,-28 125,-60 188,-89l371 -175c-20,-41 -60,-94 -73,-134 -50,11 -142,60 -191,83l-362 170c-51,25 -157,89 -183,56 -18,-56 115,-88 153,-106 128,-62 464,-210 539,-258 -19,-52 -51,-69 -57,-143 -87,30 -417,194 -542,252l-158 69c-48,0 -2,3 -23,-8 -23,-52 19,-49 70,-74 193,-94 463,-209 637,-299 56,-29 21,-41 79,-73l28 -28c53,-31 94,-16 148,-17l-35 -11c-9,-53 -58,-150 -85,-203 -39,-75 -269,-332 -323,-395 -27,-32 -28,-47 -68,-71l-1 -4 -5 25c-139,54 -278,134 -411,193 -76,34 -351,181 -412,172 -5,-62 13,-52 72,-79l309 -145c66,-30 139,-64 208,-97 67,-32 137,-61 204,-98l10 -18c-32,-14 -23,-12 -58,-53 -14,-17 -32,-33 -38,-54 -41,1 -342,149 -399,180 -60,32 -138,63 -201,94 -62,31 -157,84 -198,66 -6,-59 67,-73 167,-118l579 -273c-22,-28 -72,-92 -107,-117 -76,7 -684,339 -722,315 -5,-6 -12,11 -14,-24 0,-15 2,-11 7,-19l680 -322c-8,-33 -143,-189 -180,-228 -49,-51 -39,-51 -62,-56 -46,4 -641,294 -735,338 -258,120 -273,86 -124,383 67,134 298,669 342,720 58,-94 100,-126 231,-99z"/>
   <path class="fil2" d="M3084 3889c11,-4 27,-10 51,-21 31,-13 71,-33 102,-47 87,-39 147,-94 199,-88 -21,-25 -313,-153 -367,-178l-745 -339c-216,-104 -97,-186 -45,-362 -151,55 -604,297 -678,306l-6 19 -120 42 -36 26 -70 25c-30,26 -84,49 -129,60 -28,39 -109,37 -153,17 -55,-26 -57,-56 -89,-119 -68,-133 -346,-759 -389,-821 -55,-2 -98,10 -148,-11 -46,-20 -57,-43 -88,-76 1,39 13,59 31,141 74,343 275,710 518,950 25,25 44,45 70,70 164,162 366,273 568,371 117,56 260,96 403,127 182,40 545,62 727,14l155 -35c57,0 216,-63 239,-71z"/>
   <path class="fil4" d="M2302 3142l346 153 182 30c168,-5 607,141 800,101 420,-89 404,-491 418,-517l20 -18 -32 -4 -240 33c-37,51 -96,63 -179,75 -299,52 -250,49 -273,-116 -11,-77 -124,-233 -174,-313l-253 -387 -16 6c-1,0 -12,0 -17,1l-297 482c-26,46 -48,81 -75,123l-148 234c-17,26 -29,36 -39,64 -12,34 1,24 -23,53z"/>
   <path class="fil5" d="M1018 578c23,5 13,5 62,56 37,39 172,195 180,228l121 -54 22 47c-13,9 -32,20 -50,29l-44 28c35,25 85,89 107,117 40,-16 46,-28 92,-24 14,56 -8,37 -40,75 6,21 24,37 38,54 35,41 26,39 58,53l-10 18c16,9 5,2 18,12 3,3 9,17 12,11 1,-1 3,4 5,6l1 4c40,24 41,39 68,71 54,63 284,320 323,395 27,53 76,150 85,203l2 39c19,25 84,13 109,26 127,-33 242,51 232,178 -10,116 -125,156 -206,211 -94,43 -13,29 -47,73 -16,20 -55,17 -91,54 14,30 -2,-13 -7,23 -12,105 -172,337 -288,424l-73 65c-37,26 -64,47 -92,97 48,-9 134,-54 179,-78 110,-60 365,-164 497,-233 66,-34 69,-75 100,-145l152 -332c34,-74 -2,-93 -34,-166 -60,-139 -596,-1247 -619,-1323l-22 -40 -122 -274c-53,12 -146,35 -196,22 -19,-35 -33,-143 -31,-183 -59,10 -188,85 -254,115 -53,23 -207,81 -237,118z"/>
   <path class="fil6" d="M4332 1959c25,6 50,18 70,36 25,21 19,32 35,56 87,43 185,-27 175,207 -21,16 -38,43 -71,58 -35,16 -257,48 -315,39l-8 -154c1,-135 -51,-223 114,-242zm-1131 37c45,30 37,61 90,82 44,-21 121,-94 163,-131 60,-53 104,-64 138,-166l264 -41 145 -11c22,27 61,77 69,113 28,22 76,112 95,140 -5,38 -18,48 -18,99 0,31 41,309 54,321 14,12 46,9 72,10 8,-22 122,-25 151,-23 31,43 203,310 215,349l-396 58 -70 2c-39,27 -250,46 -300,54 -20,17 26,13 -30,16 -53,-42 2,-32 -68,-52l-8 -31 -13 107c43,35 -14,11 42,28l240 -33 602 -87c-12,62 -99,233 -130,301l-278 609c-153,344 -59,270 -800,-53l-606 -278 -176 -84 -346 -153c-82,-67 -27,-133 43,-282 108,-233 278,-634 380,-835 9,-33 20,-60 44,-84 110,173 281,457 401,625 50,80 163,236 174,313 23,165 -26,168 273,116 12,-14 -13,-18 16,-12 -13,-14 -1,11 -16,-22 -1,2 -1,2 -1,4 -3,27 -27,5 -30,3 7,-5 9,-15 13,-21 -55,5 -93,15 -143,21 -71,9 -60,-29 -60,-94l-7 -76c-5,-51 -23,-120 3,-163 20,-35 57,-60 115,-61 41,10 83,31 92,79 18,16 6,-2 18,18 10,19 2,4 7,21 100,3 98,0 140,76 3,-32 -3,-18 20,-39 28,31 5,2 20,42l12 -20c-13,-34 -28,-52 -52,-73 -47,-30 -54,-24 -99,-43 -41,-52 -67,-112 -157,-118 -108,-7 -131,51 -177,102l-20 57 -495 -784 268 -38c38,40 91,96 117,142zm-1596 1101l-40 26 7 18c19,-10 14,-16 53,-30 -20,51 5,24 -34,42l10 7c74,-9 527,-251 678,-306 -52,176 -171,258 45,362l745 339c54,25 346,153 367,178 67,8 393,173 485,213 92,41 184,89 259,0 31,-36 548,-1177 544,-1195l-124 -195c-22,-36 -106,-155 -110,-183 240,-30 216,-339 -7,-350 -38,-157 -175,-112 -275,-88 -50,-57 -137,-252 -199,-267 -44,-10 -339,45 -412,52 -24,-35 -23,-84 -99,-122 -62,-32 -107,-22 -167,1 -12,-7 -144,-70 -161,-30 -9,24 -5,32 -43,51l20 17c44,-20 63,-26 115,-10 34,14 28,23 59,40l40 -12c27,-23 46,-19 90,-17 33,4 54,27 74,52 20,26 12,76 9,115l-235 202c-29,-16 -39,-31 -58,-57l-105 -130c-58,-71 -28,-89 -18,-167 -29,-5 -8,-5 -18,-10 -22,-11 5,-8 -25,-6l-1 -3c10,17 7,10 11,33 -19,31 -1,18 -40,36l4 96 -190 29c13,19 18,26 24,52 -42,-15 -44,-11 -57,-47l-81 11 -4 19 27 40c-20,56 -35,93 -99,116l-85 168 -633 -1345c-8,4 -13,9 -14,7 0,-3 -5,0 -7,1 -33,-29 -21,-6 -34,-46 -20,0 -14,-4 -16,16 23,76 559,1184 619,1323 32,73 68,92 34,166l-152 332c-31,70 -34,111 -100,145 -132,69 -387,173 -497,233 -45,24 -131,69 -179,78z"/>
   <path class="fil7" d="M4036 2887l32 4 -20 18c-14,26 2,428 -418,517 -193,40 -632,-106 -800,-101l-74 -5c41,39 44,-2 68,59l606 278c741,323 647,397 800,53l278 -609c31,-68 118,-239 130,-301l-602 87z"/>
   <path class="fil8" d="M3971 2644l1 -40c33,-23 38,-26 73,-3l-44 16c-22,32 0,11 -30,27zm210 -203l0 62c6,3 11,5 17,7 6,-77 -6,-13 19,-37 24,-8 3,-6 18,-27 -26,-1 -43,-3 -54,-5zm-980 -445c-26,63 -61,48 -62,164 0,82 26,107 52,170 23,55 109,253 140,289 46,-51 69,-109 177,-102 90,6 116,66 157,118 45,19 52,13 99,43 38,-9 16,-8 50,-18 12,-3 38,-7 50,-9 37,-6 69,-11 107,-7l10 28c-63,-8 -45,-6 -79,20l0 37c38,43 89,27 89,-25 -46,18 0,14 -48,27 5,-11 14,-27 23,-34 46,-41 103,10 100,-76l28 -2c-11,-5 -30,-12 -44,-25 -28,-25 -15,-11 -25,-48 28,-15 24,-21 55,-41 56,4 85,24 49,80l49 -41c46,-51 38,-23 39,-71l32 -2c0,-6 1,-10 1,-9l-1 -9c0,0 -6,-5 -10,-25l86 -14 -52 -2c-26,-1 -58,2 -72,-10 -13,-12 -54,-290 -54,-321 0,-51 13,-61 18,-99 -19,-28 -67,-118 -95,-140 6,49 15,15 24,81 2,15 -2,25 7,29l17 -4c0,-2 4,0 6,0 43,40 7,68 9,145 -47,-25 -46,-74 -96,-137 -22,-28 -9,-7 -29,-39l-83 -134c-29,-55 -14,-50 -69,-43l-264 41c-34,102 -78,113 -138,166 -42,37 -119,110 -163,131 -53,-21 -45,-52 -90,-82z"/>
   <path class="fil6" d="M1091 468l-953 451c-62,29 -181,78 -122,217 35,82 74,157 113,242 79,176 277,530 327,706 -113,27 -155,145 -83,238 31,33 42,56 88,76 50,21 93,9 148,11 43,62 321,688 389,821 32,63 34,93 89,119 44,20 125,22 153,-17 2,-50 -1,-23 14,-43 9,-11 19,-15 31,-20 35,-12 58,-1 84,3l70 -25c0,-39 -18,-7 -32,-19 -18,-14 13,10 -10,-20 -81,2 -224,150 -302,73 -24,-24 -121,-240 -143,-290 -39,-85 -269,-549 -270,-589 220,-4 176,10 160,-252 -4,-69 -1,-157 -56,-183 -5,16 1,-9 -3,17 -3,16 -2,19 -8,38 8,59 18,72 19,148 0,60 10,112 7,161 -39,20 -29,13 -81,14l-102 4c-122,6 -198,2 -206,-119l0 -41 19 -28c6,-35 8,-33 39,-43 22,-8 36,-14 59,-19 10,-116 30,-79 90,-145l76 0 40 -32c-128,-45 -176,3 -234,97 -44,-51 -275,-586 -342,-720 -149,-297 -134,-263 124,-383 94,-44 689,-334 735,-338 30,-37 184,-95 237,-118 66,-30 195,-105 254,-115l-9 -67 -409 190z"/>
   <path class="fil9" d="M2725 2025c-102,201 -272,602 -380,835 -70,149 -125,215 -43,282 24,-29 11,-19 23,-53 10,-28 22,-38 39,-64l148 -234c27,-42 49,-77 75,-123l297 -482c5,-1 16,-1 17,-1l16 -6c-19,-43 -77,-137 -112,-177 -26,-14 -4,-7 -40,-14 -18,28 -8,22 -40,37z"/>
   <path class="fil6" d="M2065 2488c36,-37 75,-34 91,-54 34,-44 -47,-30 47,-73 -12,-20 11,-16 -16,-24 -21,15 -7,8 -25,18 -48,28 -136,66 -129,-34 -9,-44 -38,-63 -54,-105 -73,-106 -64,-180 -21,-214 -11,-21 9,5 3,-32 -1,-2 -34,3 -34,-2 0,-3 26,-31 26,-33 -88,44 -51,72 -107,101 -174,90 -444,205 -637,299 -51,25 -93,22 -70,74 21,11 -25,8 23,8l158 -69c125,-58 455,-222 542,-252 6,74 38,91 57,143 -75,48 -411,196 -539,258 -38,18 -171,50 -153,106 26,33 132,-31 183,-56l362 -170c49,-23 141,-72 191,-83 13,40 53,93 73,134l-371 175c-63,29 -126,61 -188,89 -33,15 -60,27 -94,44 -51,26 -77,16 -60,70 25,10 -29,9 26,7l166 -72c97,-47 506,-247 550,-253z"/>
   <path class="fil10" d="M4217 2473c-1,48 7,20 -39,71l-49 41 2 -1c-3,7 -10,25 -11,29l7 37c-44,-9 -26,-4 -33,-31l-28 2c3,86 -54,35 -100,76 -9,7 -18,23 -23,34 48,-13 2,-9 48,-27 0,52 -51,68 -89,25l-20 11c18,22 28,53 40,78 76,-4 191,-34 251,-20l70 -2 10 -21c0,-1 4,-4 6,-4l-10 -16c134,2 23,10 177,-4 63,-6 111,-26 177,-29 -7,-45 -34,-46 -50,-89 -42,-15 14,7 -19,-4 -2,0 -5,-1 -6,-2l-24 -14 11 -49c-21,-16 -19,-14 -31,-32 -8,-12 -18,-29 -27,-40l-52 -76 -80 -2 -86 14c4,20 10,25 10,25l1 9c0,-1 -1,3 -1,9l-32 2z"/>
   <path class="fil9" d="M3331 2619c-31,-36 -117,-234 -140,-289 -26,-63 -52,-88 -52,-170 1,-116 36,-101 62,-164 -26,-46 -79,-102 -117,-142l-268 38 495 784 20 -57z"/>
   <path class="fil11" d="M4082 981c43,5 68,16 91,40 29,32 20,45 41,77l93 22c46,24 68,63 54,131 -22,111 -300,118 -354,114l-22 -154 -1 -17c-15,-114 -24,-189 98,-213zm205 409c189,-65 198,-309 -35,-348 -26,-63 -59,-93 -123,-115 -126,-13 -218,50 -215,178 1,62 38,281 53,327 82,4 230,-31 320,-42z"/>
   <path class="fil1" d="M3389 2798l7 76c15,19 10,30 17,62l188 -19c7,-17 -7,-12 20,-14 28,-32 -28,11 9,-4 14,-6 11,-2 23,-11 51,-35 67,-102 39,-174 -41,-44 -66,29 -93,-61 -9,-48 -51,-69 -92,-79 -30,36 -95,31 -102,150 -6,107 -3,52 -16,74z"/>
   <path class="fil12" d="M1648 81c113,7 98,52 140,121 48,5 64,-4 104,23l-1 3c102,41 48,179 -24,209 -24,9 -250,39 -284,39l-13 -49 -8 -118c-40,-108 -25,-204 86,-228zm-161 89c-4,46 -3,67 13,108l9 67c-2,40 12,148 31,183 50,13 143,-10 196,-22l62 -9c255,-14 267,-325 27,-352 -13,-29 -23,-42 -35,-64 -30,-19 -26,-29 -72,-46 -42,-15 -76,-16 -118,-1 -55,20 -102,71 -113,136z"/>
   <path class="fil1" d="M1562 309l8 118c16,0 11,-4 10,14 58,-9 149,-41 208,-60 68,-23 107,-78 104,-156 -40,-27 -56,-18 -104,-23 -42,-69 -27,-114 -140,-121 -11,41 -43,37 -60,99 -11,41 -18,86 -26,129z"/>
   <path class="fil1" d="M1979 2216c16,42 45,61 54,105l24 26c29,-8 115,-91 142,-116 59,-54 95,-81 74,-195 -42,-42 -89,15 -126,2 -24,-21 -27,-37 -62,-54 -21,-11 -70,-22 -90,2 -23,38 -35,44 -27,115 3,30 28,102 11,115z"/>
   <path class="fil1" d="M3984 1194l1 17 26 129c45,-3 156,-44 203,-60 50,-18 142,-86 93,-160l-93 -22c-21,-32 -12,-45 -41,-77 -23,-24 -48,-35 -91,-40 -26,36 -50,46 -65,98 -8,27 -8,105 -33,115z"/>
   <path class="fil1" d="M3136 1820l105 130c55,-8 104,-73 153,-112 55,-44 99,-98 65,-182l-70 23 -28 -24 -40 12c-31,-17 -25,-26 -59,-40l-33 19c-17,8 -12,3 -27,11 -80,46 -57,156 -66,163z"/>
   <path class="fil1" d="M4227 2215l12 73c157,-14 280,-18 289,-178l-9 -25 -72 -6 -10 -28c-16,-24 -10,-35 -35,-56 -20,-18 -45,-30 -70,-36l-17 21c-2,2 -4,4 -6,5 -1,2 -4,4 -5,5 -27,27 -33,41 -43,84 -11,44 -15,105 -34,141z"/>
   <path class="fil6" d="M1159 1758c-24,-55 -84,-121 1,-137 30,21 134,229 123,286l-43 3c-41,-32 -58,-101 -81,-152zm-31 -196c-128,39 -68,144 -27,233 36,78 69,209 177,177 129,-37 61,-149 21,-236 -31,-69 -66,-207 -171,-174z"/>
   <path class="fil6" d="M1925 1963c1,1 2,2 2,5 0,5 2,12 2,15 6,36 0,18 10,38 9,-9 17,-16 27,-22 20,-12 5,-6 29,-13 20,-24 69,-13 90,-2 35,17 38,33 62,54 37,13 84,-44 126,-2 49,10 81,54 80,104 -3,83 -144,142 -185,170l-81 48c-42,2 -49,-53 -72,-80 -6,100 65,159 147,77 18,-10 4,-3 25,-18 27,8 4,4 16,24 81,-55 196,-95 206,-211 10,-127 -105,-211 -232,-178 -74,-39 -128,-92 -224,-37l-28 28z"/>
   <path class="fil6" d="M1416 1029l-579 273c-100,45 -173,59 -167,118 41,18 136,-35 198,-66 63,-31 141,-62 201,-94 57,-31 358,-179 399,-180 32,-38 54,-19 40,-75 -46,-4 -52,8 -92,24z"/>
   <path class="fil6" d="M1043 2209c41,26 136,-37 206,-70 112,-53 578,-261 618,-295l-20 -46c-62,12 -331,151 -414,189l-308 145c-48,21 -88,26 -82,77z"/>
   <path class="fil6" d="M1391 1442c-17,74 73,206 56,263 -31,-5 -43,-33 -81,-95 -26,-43 -52,-71 -71,-113 -39,5 -28,-2 -56,22 2,44 87,148 115,192 35,56 73,152 152,150 72,-24 20,-134 -8,-226 -42,-140 -40,-228 -107,-193z"/>
   <path class="fil6" d="M1589 1234c-2,-2 -4,-7 -5,-6 -3,6 -9,-8 -12,-11 -13,-10 -2,-3 -18,-12 -67,37 -137,66 -204,98 -69,33 -142,67 -208,97l-309 145c-59,27 -77,17 -72,79 61,9 336,-138 412,-172 133,-59 272,-139 411,-193l5 -25z"/>
   <path class="fil6" d="M1260 862l-680 322c-5,8 -7,4 -7,19 2,35 9,18 14,24 38,24 646,-308 722,-315l44 -28c18,-9 37,-20 50,-29l-22 -47 -121 54z"/>
   <path class="fil1" d="M477 2179c2,-2 4,-5 5,-6l23 -31c1,-4 4,-4 6,-6 1,3 4,6 4,8l6 22c8,64 14,11 34,77 -43,-10 -63,-30 -78,-64zm224 -112c-11,61 -26,51 -81,42l-37 48 53 -26c-8,35 -14,65 -66,53 -37,-8 -41,-34 -41,-66 -43,13 -54,11 -78,43l-11 28 34 20c-22,47 8,-4 40,101 14,3 40,11 58,17 12,3 18,4 29,9 15,7 8,5 17,13l102 -4 42 -10c-4,-61 -19,-107 -31,-165 -34,-155 -29,-86 -49,-143l-5 36 24 4z"/>
   <path class="fil6" d="M1639 1788c50,-6 126,-47 164,-67l-14 -49c-56,-4 -61,30 -109,28 -25,-28 -40,-65 -46,-105 27,-12 44,-16 68,-36 -11,-87 -50,-28 -101,-27l-46 -90 94 -57 -14 -45c-36,0 -111,30 -137,52 -41,35 0,93 19,136 41,88 88,179 122,260z"/>
   <path class="fil6" d="M846 1698c-3,57 136,314 165,383 42,-2 135,-46 159,-66l-9 -42c-56,-10 -56,17 -107,24 -23,-26 -93,-182 -116,-234 -16,-36 -22,-60 -53,-81l-39 16z"/>
   <path class="fil10" d="M3856 1740c55,-7 40,-12 69,43l83 134c20,32 7,11 29,39 50,63 49,112 96,137 -2,-77 34,-105 -9,-145 -2,0 -6,-2 -6,0l-17 4c-9,-4 -5,-14 -7,-29 -9,-66 -18,-32 -24,-81 -8,-36 -47,-86 -69,-113l-145 11z"/>
   <path class="fil0" d="M4239 2288l9 49c64,7 166,-11 234,-25 93,-17 158,-112 89,-179 -26,-26 -8,-15 -43,-23 -9,160 -132,164 -289,178z"/>
   <path class="fil0" d="M3459 1656c34,84 -10,138 -65,182 -49,39 -98,104 -153,112 19,26 29,41 58,57l235 -202c3,-39 11,-89 -9,-115 -20,-25 -41,-48 -74,-52l8 18z"/>
   <path class="fil0" d="M3985 1211l22 154c54,4 332,-3 354,-114 14,-68 -8,-107 -54,-131 49,74 -43,142 -93,160 -47,16 -158,57 -203,60l-26 -129z"/>
   <path class="fil2" d="M1091 468l409 -190c-16,-41 -17,-62 -13,-108l-20 44c-50,15 -78,24 -103,47 -57,55 -250,140 -273,207z"/>
   <path class="fil0" d="M2058 2342c-34,-51 -6,29 29,16l81 -48c41,-28 182,-87 185,-170 1,-50 -31,-94 -80,-104 21,114 -15,141 -74,195 -27,25 -112,103 -141,111z"/>
   <path class="fil3" d="M1240 1910l43 -3c11,-57 -93,-265 -123,-286 -85,16 -25,82 -1,137 23,51 40,120 81,152z"/>
   <path class="fil0" d="M573 2014c139,-24 133,42 158,156 12,58 27,104 31,165l-42 10c52,-1 42,6 81,-14 3,-49 -7,-101 -7,-161 -1,-76 -11,-89 -19,-148l-15 1c-2,51 5,2 9,58 -32,-10 -100,-66 -103,-106 -31,3 -67,16 -93,39z"/>
   <path class="fil0" d="M1580 441l14 17c45,0 229,-24 263,-37 122,-46 56,-154 34,-193l1 -3c3,78 -36,133 -104,156 -59,19 -150,51 -208,60z"/>
   <path class="fil6" d="M629 166c33,-31 63,-76 60,-131 -96,-60 -285,40 -60,131z"/>
   <path class="fil6" d="M2325 1084c86,-74 113,-167 -5,-144 -48,10 -41,-22 -83,27 -21,44 55,99 88,117z"/>
   <path class="fil2" d="M456 2084c-10,-34 -84,-247 -114,-275 7,54 10,183 10,242 0,32 2,60 3,90 -1,51 -7,-31 101,-57z"/>
   <path class="fil6" d="M1736 506l122 274c21,-8 11,2 27,-16 1,-1 11,-19 13,-23 -11,-78 -98,-174 -100,-244l-62 9z"/>
   <path class="fil13" d="M4528 2110c34,13 49,29 43,23 69,67 4,162 -89,179 -68,14 -170,32 -234,25l-9 -49 -12 -73 -9 -14 8 154c58,9 280,-23 315,-39 33,-15 50,-42 71,-58 10,-234 -88,-164 -175,-207l10 28 81 31z"/>
   <path class="fil6" d="M2887 631c35,-24 38,-13 33,-66l-53 2c-28,-24 -17,-45 -61,-27 -15,13 -12,24 -8,52 -37,23 -35,11 -30,64l58 -2c17,38 56,62 65,7 2,-12 -1,-18 -4,-30z"/>
   <path class="fil6" d="M3820 123c-33,11 -33,3 -35,45 28,24 22,19 61,11 13,26 18,36 50,35 23,-28 18,-22 11,-56 40,-38 65,-78 -24,-67 -22,-30 -17,-34 -61,-31 -10,27 -8,29 -2,63z"/>
   <path class="fil6" d="M407 361c-35,11 -37,6 -32,51 35,18 33,1 60,16 32,18 -1,27 52,22 12,-18 13,-32 7,-55 46,-39 59,-76 -23,-66 -42,-53 -78,-55 -64,32z"/>
   <path class="fil14" d="M4218 2201l9 14c19,-36 23,-97 34,-141 10,-43 16,-57 43,-84 1,-1 4,-3 5,-5 2,-1 4,-3 6,-5l17 -21c-165,19 -113,107 -114,242z"/>
   <path class="fil14" d="M3147 1637l-29 16c-10,78 -40,96 18,167 9,-7 -14,-117 66,-163 15,-8 10,-3 27,-11l33 -19c-52,-16 -71,-10 -115,10z"/>
   <path class="fil6" d="M3684 2928l-6 30c-27,6 -32,1 -36,-25l-27 2c-7,19 7,7 -16,12 -4,6 -6,16 -13,21 3,2 27,24 30,-3 0,-2 0,-2 1,-4 15,33 3,8 16,22 -29,-6 -4,-2 -16,12 83,-12 142,-24 179,-75 -56,-17 1,7 -42,-28l-7 -3c-20,28 -23,34 -63,39z"/>
   <path class="fil0" d="M3692 2714c41,75 -24,29 47,152 10,17 5,4 8,23l7 3 13 -107 -3 -17c-42,-76 -40,-73 -140,-76 -5,-17 3,-2 -7,-21 -12,-20 0,-2 -18,-18 27,90 52,17 93,61z"/>
   <path class="fil13" d="M1580 441c1,-18 6,-14 -10,-14l13 49c34,0 260,-30 284,-39 72,-30 126,-168 24,-209 22,39 88,147 -34,193 -34,13 -218,37 -263,37l-14 -17z"/>
   <path class="fil6" d="M4360 1806l-1 -38c-28,-17 -38,-35 -72,-26 -49,13 -55,150 73,64z"/>
   <path class="fil0" d="M3705 2878c10,11 11,5 11,25l-24 0c-1,-31 -5,-11 13,-25zm-104 39l9 0 5 18 27 -2 42 -5c40,-5 43,-11 63,-39 -3,-19 2,-6 -8,-23 -71,-123 -6,-77 -47,-152 28,72 12,139 -39,174 -12,9 -9,5 -23,11 -37,15 19,-28 -9,4 -27,2 -13,-3 -20,14z"/>
   <path class="fil14" d="M1979 2216c17,-13 -8,-85 -11,-115 -8,-71 13,-91 47,-127 -133,37 -98,152 -36,242z"/>
   <path class="fil14" d="M1562 309c8,-43 15,-88 26,-129 17,-62 49,-58 60,-99 -111,24 -126,120 -86,228z"/>
   <path class="fil6" d="M999 351c10,-52 12,-48 -14,-84l-40 -6c-77,46 -36,115 54,90z"/>
   <path class="fil6" d="M2992 1232c-36,54 -19,106 38,95 48,-10 72,-104 -38,-95z"/>
   <path class="fil15" d="M3599 2947c23,-5 9,7 16,-12l-5 -18 -9 0 -188 19c-7,-32 -2,-43 -17,-62 0,65 -11,103 60,94 50,-6 88,-16 143,-21z"/>
   <path class="fil14" d="M3984 1194c25,-10 25,-88 33,-115 15,-52 39,-62 65,-98 -122,24 -113,99 -98,213z"/>
   <path class="fil13" d="M431 2161c20,0 56,-30 98,-43l18 -1 -2 -20c8,-43 8,-48 28,-83 43,-37 74,-44 122,-60l-76 0c-60,66 -80,29 -90,145 -23,5 -37,11 -59,19 -31,10 -33,8 -39,43z"/>
   <path class="fil14" d="M3389 2798c13,-22 10,33 16,-74 7,-119 72,-114 102,-150 -58,1 -95,26 -115,61 -26,43 -8,112 -3,163z"/>
   <path class="fil6" d="M3764 2768l3 17 8 31c70,20 15,10 68,52 56,-3 10,1 30,-16l-38 -1c-5,-45 -3,-69 -19,-100l-12 20c-15,-40 8,-11 -20,-42 -23,21 -17,7 -20,39z"/>
   <path class="fil16" d="M1858 780l22 40c2,-20 -4,-16 16,-16 13,40 1,17 34,46 2,-1 7,-4 7,-1 1,2 6,-3 14,-7 -14,-44 -23,-72 -53,-101 -2,4 -12,22 -13,23 -16,18 -6,8 -27,16z"/>
   <path class="fil1" d="M545 2097c34,-19 20,-14 65,-5l3 -66c40,-14 31,-13 69,1 -32,-14 -66,-21 -109,-13 -20,35 -20,40 -28,83z"/>
   <path class="fil6" d="M3075 1637c30,-2 3,-5 25,6 10,5 -11,5 18,10l29 -16 -20 -17c38,-19 34,-27 43,-51 -58,14 -70,18 -95,68z"/>
   <path class="fil17" d="M2824 3379c-24,-61 -27,-20 -68,-59l74 5 -182 -30 176 84z"/>
   <path class="fil14" d="M3361 1655l28 24 70 -23 -8 -18c-44,-2 -63,-6 -90,17z"/>
   <path class="fil9" d="M2725 2025c32,-15 22,-9 40,-37 36,7 14,0 40,14 -14,-26 -17,-40 -36,-61 -24,24 -35,51 -44,84z"/>
   <path class="fil6" d="M3045 1703c39,-18 21,-5 40,-36 -4,-23 -1,-16 -11,-33 -6,8 -7,5 -14,18 -4,7 -3,4 -7,13 -6,16 -5,20 -8,38z"/>
   <path class="fil6" d="M3684 2928l-42 5c4,26 9,31 36,25l6 -30z"/>
   <path class="fil0 str0" d="M3692 2903l24 0c0,-20 -1,-14 -11,-25 -18,14 -14,-6 -13,25z"/>
   <path class="fil10" d="M4203 2403c0,0 40,-6 88,-10 47,-4 128,-8 133,-4 5,3 110,169 110,169l71 117 34 63c0,0 -539,95 -666,106 -119,18 -138,7 -138,7 0,0 0,-86 -41,-141 -44,-41 -30,-32 -30,-32 0,0 437,-276 439,-275z"/>
   <path class="fil10" d="M4008 1738c0,0 145,210 156,242 -14,66 -18,140 -12,148l-243 -377 99 -13z"/>
   <polygon class="fil6" points="1248,3273 1784,3019 1840,3059 1215,3352 1221,3313 "/>
   <path class="fil6" d="M3535 2956c0,0 293,3 225,-194 -67,-198 26,-31 26,-31l23 72 -15 80 -48 56 -220 56 9 -39z"/>
   <path class="fil0" d="M3732 2900c-53,30 -80,44 -107,46 -27,3 -91,12 -91,12l-115 -8 -17 -32 -7 -53c0,0 9,26 23,38 14,12 173,19 229,-11 57,-31 53,-169 39,-183 -15,-15 8,-6 8,-6 0,0 14,9 19,12 4,3 47,34 45,34 -1,1 43,94 -26,151z"/>
   <path class="fil18" d="M4610 2182c0,0 12,89 -52,124 -65,36 63,-21 63,-21l14 -44 -5 -40 -20 -19z"/>
   <path class="fil18" d="M3045 1719c0,0 -6,-190 150,-163 156,27 112,53 112,53l-69 -9 -85 34c0,0 -73,50 -47,138 26,87 -58,2 -58,2 0,0 -3,-55 -3,-55z"/>
   <path class="fil18" d="M529 2099c0,0 -133,50 -117,136 16,86 -49,-2 -49,-2 0,0 31,-74 33,-78 3,-4 24,-40 31,-46 8,-7 43,-28 47,-33 4,-4 84,-111 84,-111 0,0 52,-23 57,-25 5,-3 64,-16 64,-16l47 -5c0,0 74,26 94,83 20,56 -15,46 -15,46l-25 5c0,0 -28,-94 -90,-99 -62,-5 -124,39 -139,66 -15,27 -22,79 -22,79z"/>
   <polygon class="fil18" points="1798,497 2002,949 1972,1025 1750,537 "/>
   <polygon class="fil18" points="2652,2053 2745,1844 2911,1820 2934,1862 2939,1875 2816,1892 2769,1941 2721,2033 "/>
  </g>
 </g>
</svg>
