<?xml version="1.0" encoding="UTF-8"?>
<!DOCTYPE svg PUBLIC "-//W3C//DTD SVG 1.1//EN" "http://www.w3.org/Graphics/SVG/1.1/DTD/svg11.dtd">
<!-- Creator: CorelDRAW X7 -->
<svg xmlns="http://www.w3.org/2000/svg" xml:space="preserve" width="7.08661in" height="2.71102in" version="1.1" style="shape-rendering:geometricPrecision; text-rendering:geometricPrecision; image-rendering:optimizeQuality; fill-rule:evenodd; clip-rule:evenodd"
viewBox="0 0 7087 2711"
 xmlns:xlink="http://www.w3.org/1999/xlink">
 <defs>
  <style type="text/css">
   <![CDATA[
    .fil1 {fill:#BE3E3D}
    .fil0 {fill:white}
   ]]>
  </style>
 </defs>
 <g id="Layer_x0020_1">
  <metadata id="CorelCorpID_0Corel-Layer"/>
  <g id="_352797280">
   <path class="fil0" d="M5086 1436c21,-108 106,-282 166,-329 31,157 -12,313 -166,329zm-576 -206c-71,-61 -97,-242 -76,-309 7,-21 15,-26 18,-31 61,85 59,221 58,340zm-912 221c-11,14 -22,19 -26,46 -12,95 -4,46 22,64l234 -57c9,245 23,869 376,647 163,-102 353,-418 398,-688l192 15c-84,542 270,726 537,610 169,-73 495,-653 424,-752 -113,12 -151,354 -367,571 -34,34 -74,90 -136,102 -210,43 -219,-414 -186,-485 26,-56 201,21 299,-176 59,-119 75,-308 -41,-357 -236,-99 -421,230 -503,391 -80,7 -112,8 -187,-14 -20,-127 14,-260 -20,-410 -24,-111 -114,-239 -243,-143 -125,94 -77,359 -1,490 28,48 53,80 113,95 -28,208 -210,578 -329,640 -124,-178 7,-844 -216,-928 -60,-23 -237,8 -240,109l111 9 7 161 -218 60z"/>
   <path class="fil1" d="M319 2216c20,-93 131,-231 188,-293 144,-158 835,-396 1044,-416 -27,84 -121,221 -167,310 -81,154 -79,149 -296,171 2,-92 34,-111 6,-190 -152,-50 -268,166 -348,245 -54,54 -334,149 -427,173zm564 -974c174,-68 487,117 540,165l-628 223c-220,78 -123,73 -307,-15 -93,-44 -231,-71 -294,-138 110,-41 184,-90 320,-51 87,25 226,89 318,77 41,-116 -97,-112 -130,-190 54,-29 119,-47 181,-71zm516 797c64,-70 160,-264 222,-372 121,-208 81,-204 364,-235l5 -155c-92,8 -354,86 -404,73 -26,-7 -126,-60 -161,-76 -430,-192 -444,-187 -893,-34l-25 74c-150,-10 -124,-20 -274,23 -80,23 -168,40 -233,82l0 121 494 172c-34,76 -297,341 -358,495 -32,81 13,157 89,166 53,5 324,-122 427,-143 226,-44 168,-174 317,-236l75 93 355 -48z"/>
   <path class="fil0" d="M2392 978c25,-238 194,-760 337,-854 3,199 -104,519 -207,688 -40,65 -77,135 -130,166zm419 1023l-102 -61c-32,60 -113,160 -192,182 -174,-87 -190,-450 -183,-675 9,-308 26,-220 114,-322 183,-210 364,-566 404,-860 58,-433 -306,-237 -409,-98 -234,316 -398,788 -403,1295 -8,822 537,879 771,539z"/>
   <path class="fil1" d="M6152 1792c202,1 676,475 755,709 -173,-30 -357,-93 -553,-130 -101,-19 -478,-62 -533,-165 60,-62 255,-31 331,-19 109,17 227,63 326,63 -5,-143 -313,-312 -326,-458zm918 900c70,-67 -99,-317 -143,-386 -127,-199 -739,-953 -894,-484 -105,-54 -167,-158 -307,-196l-39 138c120,54 260,139 310,246 -84,9 -180,13 -235,63 -53,48 -61,157 -16,223 129,187 727,167 1138,337 30,12 66,29 101,47 107,56 75,21 85,12z"/>
   <path class="fil1" d="M3221 2163c33,-50 98,-93 141,-139 89,-93 175,-201 235,-316 79,-151 101,-198 95,-365 -9,-213 -151,-427 -358,-314 -168,92 -213,330 -257,561 -80,-69 -137,-206 -257,-297 -101,-77 -270,-160 -385,-33 -105,116 -81,295 -7,425 140,248 516,461 793,478z"/>
  </g>
 </g>
</svg>
